<svg xmlns="http://www.w3.org/2000/svg" width="32" height="32" viewBox="0 0 32 32" version="1.1">
	<path d="M 0 16.025 L 0 32.050 16.250 31.775 L 32.500 31.500 32.775 15.750 L 33.051 0 16.525 0 L 0 0 0 16.025 M 0.391 16.500 C 0.395 25.300, 0.554 29.184, 0.745 25.132 L 1.092 17.764 3.296 22.058 C 11.803 38.634, 36.698 26.671, 29.160 9.629 C 24.073 -1.872, 8.080 -2.099, 2.996 9.258 L 1.108 13.475 0.747 6.988 C 0.548 3.419, 0.388 7.700, 0.391 16.500 M 12.542 2.699 C 6.779 4.252, 3 9.354, 3 15.582 C 3 20.987, 6.249 25.548, 11.540 27.568 C 15.741 29.173, 16.259 29.173, 20.460 27.568 C 33.205 22.701, 31.340 4.586, 17.896 2.659 C 16.028 2.391, 13.619 2.409, 12.542 2.699 M 11 5.468 C 11 5.725, 12.238 6.607, 13.750 7.428 L 16.500 8.920 13.903 8.960 C 12.475 8.982, 10.320 9.855, 9.115 10.900 L 6.924 12.800 9.304 15.567 C 10.667 17.151, 12.786 18.382, 14.265 18.446 C 15.684 18.508, 16.629 18.208, 16.364 17.780 C 16.099 17.351, 15.017 17, 13.960 17 C 12.756 17, 11.809 16.088, 11.425 14.557 C 10.685 11.607, 11.531 9.995, 13.809 10.015 C 15.159 10.028, 15.222 10.207, 14.122 10.904 C 12.337 12.034, 13.562 14, 16.051 14 C 17.113 14, 18.545 14.900, 19.232 16 C 19.919 17.100, 20.875 18, 21.356 18 C 21.837 18, 21.493 16.875, 20.592 15.500 C 18.927 12.959, 19.669 12.069, 21.733 14.133 C 22.356 14.756, 23.683 14.949, 24.683 14.561 C 26.407 13.893, 26.411 13.792, 24.750 12.568 C 23.788 11.859, 23 10.799, 23 10.212 C 23 9.624, 20.508 8.211, 17.462 7.072 C 11.587 4.874, 11 4.728, 11 5.468 M 17 5.500 C 17 5.775, 17.225 6, 17.500 6 C 17.775 6, 18 5.775, 18 5.500 C 18 5.225, 17.775 5, 17.500 5 C 17.225 5, 17 5.225, 17 5.500 M 9.405 8.155 C 8.962 8.870, 9.130 9.038, 9.845 8.595 C 10.998 7.883, 11.393 7, 10.559 7 C 10.316 7, 9.797 7.520, 9.405 8.155 M 8.473 22.748 C 9.333 26.174, 9.551 26.386, 11.457 25.655 C 12.306 25.329, 13 23.924, 13 22.531 C 13 20.470, 12.516 20, 10.392 20 C 8.046 20, 7.853 20.277, 8.473 22.748 M 14 22.786 C 14 24.905, 14.479 25.571, 16 25.571 C 17.521 25.571, 18 24.905, 18 22.786 C 18 20.667, 17.521 20, 16 20 C 14.479 20, 14 20.667, 14 22.786 M 19 22.531 C 19 25.276, 21.502 26.898, 23.167 25.233 C 24.720 23.680, 23.149 20, 20.933 20 C 19.531 20, 19 20.696, 19 22.531 M 10 23 C 10 23.550, 10.450 24, 11 24 C 11.550 24, 12 23.550, 12 23 C 12 22.450, 11.550 22, 11 22 C 10.450 22, 10 22.450, 10 23 M 20 23 C 20 23.550, 20.477 24, 21.059 24 C 21.641 24, 21.840 23.550, 21.500 23 C 21.160 22.450, 20.684 22, 20.441 22 C 20.198 22, 20 22.450, 20 23" stroke="none" fill="#000000" fill-rule="evenodd"/>
</svg>