<svg xmlns="http://www.w3.org/2000/svg" width="32" height="32" viewBox="0 0 32 32" version="1.1">
	<path d="M 0 16.025 L 0 32.050 16.250 31.775 L 32.500 31.500 32.775 15.750 L 33.051 0 16.525 0 L 0 0 0 16.025 M 0.405 16.500 C 0.406 25.300, 0.559 28.766, 0.745 24.203 C 0.930 19.639, 0.929 12.439, 0.742 8.203 C 0.555 3.966, 0.404 7.700, 0.405 16.500 M 8.873 3.684 C 5.067 6.045, 3 10.159, 3 15.369 C 3 23.780, 11.796 30.542, 19.450 28.016 C 21.348 27.390, 24.273 25.315, 25.950 23.404 C 28.446 20.561, 28.994 19.074, 28.965 15.215 C 28.923 9.629, 27.425 6.578, 23.433 3.946 C 19.804 1.555, 12.515 1.423, 8.873 3.684 M 9.763 4.565 C 4.637 7.347, 2.418 15.521, 5.353 20.810 C 9.760 28.752, 22.423 28.885, 26.483 21.033 C 32.183 10.011, 20.653 -1.344, 9.763 4.565 M 16.965 6.282 C 18.195 7.926, 18.088 7.984, 15.584 7.032 C 12.203 5.746, 11.722 5.741, 12.500 7 C 12.840 7.550, 12.529 8.004, 11.809 8.008 C 9.739 8.020, 8.065 12.644, 9.003 15.760 L 9.828 18.500 9.914 15.361 C 10.028 11.198, 13.344 6.994, 15.129 8.750 C 15.848 9.457, 15.951 10, 15.367 10 C 13.105 10, 14.509 13.281, 17.167 14.208 C 18.725 14.751, 20 15.602, 20 16.098 C 20 16.594, 20.520 17, 21.155 17 C 21.795 17, 21.461 16.044, 20.405 14.854 C 18.505 12.714, 18.506 12.712, 20.857 13.947 C 25.224 16.241, 24.888 13.534, 20.243 9 C 17.708 6.525, 16.233 5.302, 16.965 6.282 M 20 11.500 C 20 11.775, 20.225 12, 20.500 12 C 20.775 12, 21 11.775, 21 11.500 C 21 11.225, 20.775 11, 20.500 11 C 20.225 11, 20 11.225, 20 11.500 M 11 14.921 C 11 16.099, 11.694 17.329, 12.543 17.655 C 14.901 18.560, 15.022 17.740, 12.914 15.139 C 11.026 12.810, 11 12.807, 11 14.921 M 9 21.427 C 9 23.362, 9.513 24, 11.070 24 C 12.641 24, 13.062 23.461, 12.820 21.760 C 12.345 18.436, 9 18.144, 9 21.427 M 14 21.438 C 14 23.254, 14.507 23.838, 15.988 23.726 C 17.298 23.627, 17.639 23.239, 16.988 22.588 C 16.445 22.045, 16.007 21.127, 16.015 20.550 C 16.024 19.973, 16.467 20.175, 17 21 C 17.828 22.282, 17.972 22.246, 17.985 20.750 C 17.994 19.662, 17.244 19, 16 19 C 14.547 19, 14 19.667, 14 21.438 M 19.380 20.452 C 18.623 22.424, 19.756 24.025, 21.809 23.884 C 23.334 23.779, 23.328 23.723, 21.750 23.311 C 20.788 23.059, 20 22.459, 20 21.976 C 20 21.494, 20.788 20.641, 21.750 20.080 C 23.408 19.114, 23.407 19.059, 21.719 19.030 C 20.739 19.014, 19.686 19.653, 19.380 20.452 M 10 21.500 C 10 22.325, 10.450 23, 11 23 C 11.550 23, 12 22.325, 12 21.500 C 12 20.675, 11.550 20, 11 20 C 10.450 20, 10 20.675, 10 21.500" stroke="none" fill="#000000" fill-rule="evenodd"/>
</svg>